<svg xmlns="http://www.w3.org/2000/svg" viewBox="0 0 442.01 549.35"><defs><style>.cls-1{fill:#fff;}.cls-2{fill:#eab488;}.cls-3{fill:#93633e;}.cls-4{fill:#121819;}.cls-5{fill:#090b0c;}.cls-6{fill:#0c1011;}.cls-16,.cls-17,.cls-18,.cls-19,.cls-20,.cls-21,.cls-22,.cls-7{fill:none;stroke-miterlimit:10;}.cls-7{stroke:#a9e7e5;stroke-width:1px;}.cls-8{fill:#f9c198;}.cls-9{fill:#ffb3b3;}.cls-10{fill:#d37979;}.cls-11{fill:#e8ef8b;}.cls-12{fill:#009245;}.cls-13{fill:#c1272d;}.cls-14{fill:#22b573;}.cls-15{fill:#005a82;}.cls-16,.cls-17{stroke:#0a0a0e;}.cls-16,.cls-17,.cls-18,.cls-19,.cls-20,.cls-21,.cls-22{stroke-linecap:round;}.cls-16,.cls-21,.cls-22{stroke-width:3.98px;}.cls-17,.cls-19,.cls-20{stroke-width:2.99px;}.cls-18,.cls-20,.cls-21{stroke:#0c1011;}.cls-18{stroke-width:5.97px;}.cls-19,.cls-22{stroke:#090b0c;}</style></defs><title>vectorizedbackwards</title><g id="Layer_2" data-name="Layer 2"><path class="cls-1" d="M457.13,548.7,451,565.5s-97,5-130-38c-21-2-18,14-18,14l32.21,131.21S472,685.5,525.53,661c12-16-20-80-20-80S513.24,560.89,457.13,548.7Z" transform="translate(-149.86 -135.19)"/><path class="cls-2" d="M307.37,330.63,407.89,199.26l148.29,24.88s6,32.84,8,40.8c8,26.87,7,53.74,7,53.74l-10.69,36.22s4,20.27,3.46,21.74c.73,24.12-20.37,85.62-20.37,85.62l-9.33,17-6.49,19.34c-6.59,13.72-58.1-.78-68.05-3.77.07.69.12,1.36.17,2l0,0c-4.81-4.24-12.53-4.61-18.43-6.43a114.2,114.2,0,0,1-20.49-8.68,6.5,6.5,0,0,0-.77-.34,23.06,23.06,0,0,0-10.41-8.23c-3.23-1.31-7.15,1.44-8,4.52-1,3.66,1.26,6.63,4.52,8,5.34,2.17,6.69,10.38,7.53,15.3A165.8,165.8,0,0,1,416,527.26c.07,7-1.5,15.19.7,21.92,2.07,6.33,9.17,8.62,15.19,9.13,10.17.86,19.1-4.13,24.5-12.06a109.73,109.73,0,0,1-5.68,18.26c-94.55,29.86-126.39-32.84-126.39-34.83,7-12.94,10.95-56.73,10.95-56.73Z" transform="translate(-149.86 -135.19)"/><path class="cls-3" d="M431.86,558.3c-6-.51-13.12-2.8-15.19-9.13-2.21-6.72-.63-15-.7-21.92a165.8,165.8,0,0,0-2.18-26.31c-.84-4.91-2.19-13.13-7.53-15.3-3.26-1.32-5.48-4.29-4.52-8,.81-3.08,4.72-5.83,8-4.52a23.06,23.06,0,0,1,10.41,8.23,6.5,6.5,0,0,1,.77.34,114.2,114.2,0,0,0,20.49,8.68c5.9,1.82,13.62,2.2,18.43,6.43l0,0a160.27,160.27,0,0,1-3.45,49.36C451,554.17,442,559.16,431.86,558.3Z" transform="translate(-149.86 -135.19)"/><path class="cls-1" d="M531.79,431.64s-34.07-5.58-60.33-3.79c-.76-.39,2.78,24.91,25.58,34.75,1.81.77,20,6.77,28.86-10.11C528.72,446.61,530.8,442.59,531.79,431.64Z" transform="translate(-149.86 -135.19)"/><path class="cls-4" d="M286.56,276.59c11.84-90,54.16-96.76,55.14-97.74,16.92-46.78,61.66-41.49,62.74-42.11,20.16,3.37,36.12,4.38,44.52,5a61.45,61.45,0,0,0,13.1-.38c60.92-8.32,78.48,24,83.42,32.88.93,1.66.78,4,2.27,5.22,17.38,13.78,31.31,33.68,28.65,43.34-.75,2.73,3.17,4.71,4.09,7.39,16.34,47.68-13.44,52.56-13.44,52.56-2.55-21.46-6.4-30.29-6.4-30.29-3.8-10.15-11.25-17.46-16.14-21.44a24.69,24.69,0,0,0-9.09-4.65c-17.56-4.78-84-21.84-116.94-15.67a4.47,4.47,0,0,0-3.58,5c1,7.27,2.34,14.53,4.11,21.67a96.39,96.39,0,0,0,3.56,11.7c1.49,3.86,3.87,7.2,4.74,11.3,3.43,16.18-1,33.92-15,43.79-.86.86-15.74,22.38-20.49,48.05a2.06,2.06,0,0,1-4,.21c-3.37-11.45-10.8-27-26.53-29.17a4.32,4.32,0,0,1-2.79-1.59c-4.52-5.68-22.37-25.64-35.24-4.09a37.14,37.14,0,0,0-3.87,28.09c3.34,13.28,9.72,33.83,18.29,39.11.77.47,1.33,2.82,1.75,5.55h0s2.5,50.19-3.61,91a1.75,1.75,0,0,1-3.48-.14c-1-14.22-.42-28.66-3.93-42.81-4.32-17.43-13.6-32.69-21-48.92a228.22,228.22,0,0,1-15.22-48.42,316.8,316.8,0,0,1-5.55-40.54c-.34-4.65-.59-9.3-.7-14A65.17,65.17,0,0,1,286.56,276.59Z" transform="translate(-149.86 -135.19)"/><path class="cls-5" d="M334,484.41a3.2,3.2,0,0,1-3.11-3c-.26-3.87-.41-7.82-.56-11.63-.4-10.2-.81-20.75-3.33-30.92-3-12.29-8.73-23.77-14.23-34.87-2.22-4.49-4.52-9.13-6.63-13.78a227.65,227.65,0,0,1-15.32-48.73,319.36,319.36,0,0,1-5.57-40.73c-.37-5.06-.6-9.65-.7-14a66.9,66.9,0,0,1,.54-10.28h0c9.59-72.86,38.67-93,55.16-98.57l.29-.1c10.12-27.31,32.22-42.36,62.28-42.41H404l.22-.12.52.09c18.14,3,32.92,4.15,41.75,4.82l2.64.2a60,60,0,0,0,12.78-.38c26.06-3.56,47.4-.18,63.41,10a62.38,62.38,0,0,1,21.39,23.39l.12.21a10.49,10.49,0,0,1,.9,2.53,4.31,4.31,0,0,0,1,2.25c16.39,13,32.2,33.86,29.16,44.91-.22.79.49,1.66,1.68,3a10.87,10.87,0,0,1,2.38,3.51c6.42,18.73,6.65,33.29.7,43.29a23.8,23.8,0,0,1-15.3,11.23l-1.54.26-.18-1.55c-2.49-20.91-6.25-29.79-6.32-29.94-3.6-9.59-10.52-16.61-15.69-20.8a23.1,23.1,0,0,0-8.54-4.37c-19.11-5.2-84-21.7-116.27-15.64a3,3,0,0,0-2.37,3.37,219,219,0,0,0,4.08,21.52,93.22,93.22,0,0,0,3.5,11.52c.54,1.39,1.22,2.76,1.88,4.09a31,31,0,0,1,2.93,7.45c3.83,18-2.21,35.75-15.38,45.2-1,1.38-15.34,21.78-20,47.22a3.55,3.55,0,0,1-6.91.36c-3.44-11.7-10.63-26.07-25.3-28.11a5.79,5.79,0,0,1-3.76-2.14c-2.6-3.27-11.79-13.89-20.91-13.28-4.49.3-8.48,3.34-11.88,9a35.87,35.87,0,0,0-3.71,27c5.24,20.86,11.5,34.43,17.63,38.2.95.58,1.73,1.93,2.44,6.6l0,.15c0,.5,2.44,50.8-3.63,91.31a3.19,3.19,0,0,1-3.2,2.76Zm2.85-98.33c-8.66-5.43-15-24.71-18.87-40a38.87,38.87,0,0,1,4-29.22c3.93-6.59,8.73-10.11,14.25-10.48,10.29-.7,19.82,9.85,23.45,14.4a2.82,2.82,0,0,0,1.83,1c16.25,2.26,24.06,17.68,27.76,30.22a.57.57,0,0,0,1.11-.06c4.73-25.58,19.72-47.66,20.9-48.83l.19-.16c12.31-8.72,17.95-25.31,14.35-42.26a28.35,28.35,0,0,0-2.68-6.73c-.69-1.39-1.41-2.82-2-4.34a96.06,96.06,0,0,1-3.62-11.88A222,222,0,0,1,413.42,216a6,6,0,0,1,4.78-6.73c32.93-6.18,98.35,10.45,117.61,15.69a26.07,26.07,0,0,1,9.64,4.93c5.46,4.43,12.77,11.85,16.57,22,.16.36,3.77,8.81,6.31,29a21.4,21.4,0,0,0,11.72-9.42c5.47-9.21,5.15-22.92-1-40.77a8.7,8.7,0,0,0-1.78-2.49c-1.34-1.5-3-3.36-2.33-5.77,2.38-8.66-10.5-27.79-28.14-41.78a6.59,6.59,0,0,1-2-3.84,8.07,8.07,0,0,0-.62-1.82l-.12-.21c-14.83-26.57-42.35-37.31-81.79-31.92a63.14,63.14,0,0,1-13.42.39l-2.64-.2c-8.83-.67-23.59-1.79-41.74-4.81-.35,0-.84,0-1.66,0-29.36,0-50,14.24-59.7,41.06l-.11.31-.24.24a3.63,3.63,0,0,1-1.57.74c-9.08,3.05-17.42,9.1-24.78,18-14.27,17.23-23.82,43.52-28.37,78.15h0a63.74,63.74,0,0,0-.51,9.82c.1,4.33.33,8.88.69,13.89a316.38,316.38,0,0,0,5.52,40.35,224.72,224.72,0,0,0,15.12,48.1c2.09,4.61,4.37,9.23,6.59,13.69,5.57,11.24,11.33,22.87,14.45,35.48,2.59,10.47,3,21.17,3.41,31.52.15,3.79.3,7.72.56,11.55,0,.1,0,.23.25.24s.25-.12.26-.22c5.92-39.47,3.71-88.4,3.6-90.64C337.46,387.17,337,386.27,336.85,386.08ZM404.12,135.3Z" transform="translate(-149.86 -135.19)"/><path class="cls-6" d="M351.66,175.87s14.93-42.79,62.7-29.86C415.35,147,376.54,135.07,351.66,175.87Z" transform="translate(-149.86 -135.19)"/><path class="cls-6" d="M549.7,187.82s30.85,25.88,29.86,68.67C577.57,252.5,572.59,212.7,549.7,187.82Z" transform="translate(-149.86 -135.19)"/><path class="cls-6" d="M528.81,171.89S511.89,141,455.16,149C455.16,151,512.88,146,528.81,171.89Z" transform="translate(-149.86 -135.19)"/><path class="cls-6" d="M460.13,167.91s-39.81-4-76.63,22.89c10.95-3,33.84-22.89,79.62-22.89" transform="translate(-149.86 -135.19)"/><path class="cls-6" d="M486,185.82s34.83-8,56.73,18.91C542.74,206.72,528.81,184.83,486,185.82Z" transform="translate(-149.86 -135.19)"/><path class="cls-6" d="M398.43,222.65s5,25.88,12.94,37.82c3,5,10,16.92-4,31.85-2,2-10.95,9-11.94,17.91,0,0-1-10.95,13.93-23.89,0-1,10-7-1-27.87C408.38,254.49,397.44,233.6,398.43,222.65Z" transform="translate(-149.86 -135.19)"/><path class="cls-6" d="M471.08,194.78s69.67-5,93.55,33.84C563.64,228.62,525.82,196.77,471.08,194.78Z" transform="translate(-149.86 -135.19)"/><path class="cls-6" d="M474.07,181.84s-46.78-6-90.57,19.9C394.45,199.76,415.35,186.82,474.07,181.84Z" transform="translate(-149.86 -135.19)"/><path class="cls-6" d="M376.54,222.65s-34.83,36.82-33.84,74.64C344.69,293.31,353.65,248.52,376.54,222.65Z" transform="translate(-149.86 -135.19)"/><path class="cls-6" d="M396.44,245.54s-33.84,35.83-23.89,72.65C372.56,315.2,367.58,285.35,396.44,245.54Z" transform="translate(-149.86 -135.19)"/><path class="cls-7" d="M49.5,323" transform="translate(-149.86 -135.19)"/><path class="cls-8" d="M422.06,366.81c15.18-10.59,46-10.59,62-1.22-17.91,2-35.83-.67-53.18,2.15C425.42,368.2,422,367.9,422.06,366.81Z" transform="translate(-149.86 -135.19)"/><path class="cls-8" d="M538.22,369c5.83-4.17,15.77-2.35,20.07,3.09-5.95-.1-11.49-2.44-17.33-2.12C539.18,369.9,538.12,369.56,538.22,369Z" transform="translate(-149.86 -135.19)"/><path class="cls-6" d="M294.35,309.8s-11.36-82.18,41.38-123C335.73,186.82,282,217.67,294.35,309.8Z" transform="translate(-149.86 -135.19)"/><path class="cls-6" d="M345.68,180.85s18.91,23.89,47.77,28.86C393.46,210.71,360.61,205.73,345.68,180.85Z" transform="translate(-149.86 -135.19)"/><path class="cls-6" d="M346.68,202.74s-48.77,50.76-37.82,128.38C307.87,329.14,306.87,252.5,346.68,202.74Z" transform="translate(-149.86 -135.19)"/><path class="cls-6" d="M307.87,359s24.88,47.77,25.88,72.65C334.74,427.66,331.75,392.83,307.87,359Z" transform="translate(-149.86 -135.19)"/><path class="cls-9" d="M458.21,541.95c-1.13-5.12,4.33-11.27,10.25-7.83,6.35,3.68,14.51,3.48,21.52,5.22a97.54,97.54,0,0,1,21.63,8.29c8,4.19,14.95,10,22.16,15.35a5.45,5.45,0,0,1,5.26.87l20.62,15.85c5.72,4.4,11.68,8.7,16.3,14.3,10.69,13,11,31.15,13.49,47.08,1.09,7,3.94,17,.23,23.61-3.86,6.88-13.91,7-20.82,7.83a123.9,123.9,0,0,1-25.21.47c-4-.33-9.2-.45-13.85-1.58-5.1,2.92-11.25-2.22-10.36-7.35-3.59-7.07-2.06-16.89-1.78-24.32a44.43,44.43,0,0,0-1.41-14c-.54-1.95-1.18-3.87-1.83-5.79a12.85,12.85,0,0,1-.95-2.63,1.58,1.58,0,0,0-.25-.84c-4.53,1.15-8.3-1.55-8.94-6.53-3.29-25.44-25.31-43.23-44.4-57.67C455.89,549.19,455.95,544.72,458.21,541.95Z" transform="translate(-149.86 -135.19)"/><path class="cls-9" d="M175.61,574.47c15-8.45,71.55-32.35,75.53-34.34C266.07,537.14,327,508,327,508l-5,26.06a45.13,45.13,0,0,0,2.75,7.39,16.34,16.34,0,0,1,2,1.59,15.22,15.22,0,0,1,4.1,6.87,16.73,16.73,0,0,1,.48,4.3,58.83,58.83,0,0,1,2.49,5.62,45.22,45.22,0,0,1,2.18,8.52,29.7,29.7,0,0,1,3.52,6.8c2.07,6.17,2.39,13.21,3.35,19.63.44,3-.11,5.91-2.24,7.93a36.91,36.91,0,0,1,1.1,7c0,10.95-5.17,7.8-14.73,9.12,11.14,15.09,9.26,33.45,8.26,53.8-60.21,19.13-143.81,7.74-176.65,6.75C136.69,607.8,175.39,575.45,175.61,574.47Z" transform="translate(-149.86 -135.19)"/><path class="cls-10" d="M326.78,508.28l-79.34,33.52s62.42-11.62,76.85-21.08C323.29,518.73,326.78,508.28,326.78,508.28Z" transform="translate(-149.86 -135.19)"/><path class="cls-10" d="M460.13,533.16s39.81,4,55.73,16.92c1.87,1.7-29.86-2-56.73-13.35C460.13,536.55,460.13,533.16,460.13,533.16Z" transform="translate(-149.86 -135.19)"/><path class="cls-1" d="M526.78,554.21c19.47,9.33,31.69,28.22,42.17,46.31,5.69,9.83,6.69,20.15,9.6,30.88,3.08,11.33,5.68,22.28,6,34.09.17,6.41-9.78,6.4-10,0-.28-10.63-2.59-20.43-5.41-30.61s-3.48-20.11-8.83-29.34c-9.65-16.66-20.67-34.15-38.6-42.74C516,560,521,551.46,526.78,554.21Z" transform="translate(-149.86 -135.19)"/><path class="cls-1" d="M317.94,625A452.4,452.4,0,0,1,319,675.33c-.22,6.39-10.17,6.42-10,0A452.4,452.4,0,0,0,308,625C307.5,618.66,317.45,618.69,317.94,625Z" transform="translate(-149.86 -135.19)"/><path class="cls-11" d="M509.66,549.11c9.8,5.54,19.78,11.22,27.82,19.22,8.36,8.33,14.31,19.15,19.9,29.44,11.84,21.79,17,46.09,19.22,70.6.35,3.83-5.63,3.8-6,0-2.12-23.44-7.09-46.75-18.4-67.59-5.21-9.6-10.7-19.78-18.39-27.64s-17.59-13.45-27.19-18.88C503.3,552.37,506.31,547.21,509.66,549.11Z" transform="translate(-149.86 -135.19)"/><path class="cls-1" d="M185.54,616a132.26,132.26,0,0,1,6.6-31.07c-1.77-1.16-3-3.39-2.21-5.5a38.44,38.44,0,0,1,3.88-7.6,5.49,5.49,0,0,1,4.79-2.46q1.44-2.93,3-5.8c3.1-5.6,11.7-.59,8.59,5a121.82,121.82,0,0,0-15,51.19c-1.23,18.63-.9,37.44-1.2,56.1-.1,6.4-10.06,6.42-10,0C184.36,656,183.76,635.81,185.54,616Z" transform="translate(-149.86 -135.19)"/><path class="cls-11" d="M182.29,612.67c1.79-17.24,2.85-36.35,14.37-50.27,2.45-3,6.66,1.28,4.22,4.22-11.41,13.79-11.61,35-13.2,51.92q-2.77,29.39-2.62,58.94c0,3.84-6,3.85-6,0A606.5,606.5,0,0,1,182.29,612.67Z" transform="translate(-149.86 -135.19)"/><path class="cls-11" d="M309.17,623.55l1.07,52.65c.08,3.84-5.89,3.84-6,0l-1.07-52.65C303.12,619.7,309.1,619.7,309.17,623.55Z" transform="translate(-149.86 -135.19)"/><path class="cls-12" d="M303.62,622.49l.81,55.82a1.49,1.49,0,0,1-3,0l-.81-55.82A1.49,1.49,0,0,1,303.62,622.49Z" transform="translate(-149.86 -135.19)"/><path class="cls-12" d="M178.77,618.18c.79-9.13,1.8-18.25,3-27.33,1.13-8.7,4.46-16.85,8.33-24.69.85-1.72,3.43-.21,2.58,1.51a81.9,81.9,0,0,0-8.4,27.11c-1.1,9.08-2.1,18.17-2.82,27.29-1.46,18.49-2,37-2.49,55.58-.05,1.92-3,1.93-3,0C176.51,657.81,177.06,638,178.77,618.18Z" transform="translate(-149.86 -135.19)"/><path class="cls-12" d="M540.19,579.62c5.07,5.72,8.09,13.07,11.21,20,3.36,7.45,6.41,15,9,22.79a193.39,193.39,0,0,1,9.95,48.25c.14,1.92-2.85,1.91-3,0a189.16,189.16,0,0,0-9.28-45.77c-2.48-7.52-5.36-14.9-8.57-22.13s-6.25-15.09-11.47-21C536.81,580.3,538.91,578.18,540.19,579.62Z" transform="translate(-149.86 -135.19)"/><path class="cls-12" d="M214,616.77c1.83-19.77,2-41.08,9.43-59.73.47-1.18,2.39-.66,1.92.53-3.74,9.38-5.34,18.94-6.35,28.94-1.08,10.72-2.22,21.44-3.18,32.17a290,290,0,0,0,.89,62.49c.16,1.27-1.83,1.26-2,0A294.43,294.43,0,0,1,214,616.77Z" transform="translate(-149.86 -135.19)"/><path class="cls-13" d="M219.23,616.26q.83-15.39,2.86-30.69c1.34-10.12,2.46-20.73,6.44-30.2.49-1.16,2.42-.65,1.92.53-4,9.41-5.07,19.9-6.4,29.94q-2.13,16.1-2.92,32.34a399.86,399.86,0,0,0,2,63.21c.14,1.27-1.85,1.26-2,0A399.71,399.71,0,0,1,219.23,616.26Z" transform="translate(-149.86 -135.19)"/><path class="cls-14" d="M553.28,573.77c7.06,3.17,12,9.78,16.69,15.75A72.84,72.84,0,0,1,581.35,611a127.48,127.48,0,0,1,5.36,24.77c1.26,9.75,2.87,20.08,2,29.91-.11,1.27-2.1,1.28-2,0,.77-8.68-.56-17.63-1.55-26.26a141.8,141.8,0,0,0-4.67-24.57,73.87,73.87,0,0,0-10.21-21.62c-4.64-6.55-10.52-14.37-18-17.72C551.11,575,552.12,573.25,553.28,573.77Z" transform="translate(-149.86 -135.19)"/><path class="cls-15" d="M228,618c.71-21.78,1.56-43.61,5.95-65,.51-2.51,4.35-1.45,3.84,1.06-4.32,21.06-5.11,42.54-5.81,64-.69,21.21-1.27,42.58,3.58,63.4.58,2.49-3.26,3.56-3.84,1.06C226.83,661.3,227.34,639.59,228,618Z" transform="translate(-149.86 -135.19)"/><path class="cls-15" d="M279.31,621.52c.15-3.83,6.12-3.85,6,0-.75,18.83,4,37.24,4.77,56,.15,3.84-5.82,3.84-6,0C283.36,658.76,278.56,640.35,279.31,621.52Z" transform="translate(-149.86 -135.19)"/><path class="cls-13" d="M270.52,617c.17-1.26,2.09-.73,1.92.53-1.39,10.21.85,21.36,1.7,31.58l2.51,30.43c.11,1.28-1.89,1.27-2,0L272,647.18C271.17,637.35,269.18,626.86,270.52,617Z" transform="translate(-149.86 -135.19)"/><path class="cls-15" d="M540.67,619.44a324.52,324.52,0,0,1,4.5,49.69c0,3.84-5.92,3.85-6,0a314.1,314.1,0,0,0-4.29-48.1C534.28,617.27,540,615.65,540.67,619.44Z" transform="translate(-149.86 -135.19)"/><path class="cls-13" d="M527.34,619.56a330.13,330.13,0,0,1,4.28,50,1.49,1.49,0,0,1-3,0,324.88,324.88,0,0,0-4.17-49.18C524.16,618.48,527,617.67,527.34,619.56Z" transform="translate(-149.86 -135.19)"/><path class="cls-1" d="M251.81,543.64c1.27-5,9-2.86,7.68,2.12-5.59,21.81-3.32,43.8-2,66l3.93,68.8c.29,5.12-7.67,5.1-8,0l-4-70.77C248.09,587.47,246.19,565.57,251.81,543.64Z" transform="translate(-149.86 -135.19)"/><path class="cls-16" d="M540.75,616.76s-18.91,5-30.85,0" transform="translate(-149.86 -135.19)"/><path class="cls-16" d="M464.12,534.15s55.73,14.93,72.65,45.78c1,1,11.94,23.89,9,32.84" transform="translate(-149.86 -135.19)"/><path class="cls-16" d="M459.14,550.08s43.79,29.86,45.78,59.71" transform="translate(-149.86 -135.19)"/><path class="cls-16" d="M498.13,542.26a265,265,0,0,1,37.51,19.42c18.82,11.62,41.72,27.62,47.59,50.24a236.71,236.71,0,0,1,5.5,28.62c1.1,8.39,2,17.7-.21,26" transform="translate(-149.86 -135.19)"/><path class="cls-16" d="M517.86,666.52c3-10,0-39.81,0-39.81" transform="translate(-149.86 -135.19)"/><path class="cls-16" d="M579.56,670.5s-19.9,5-53.74,0" transform="translate(-149.86 -135.19)"/><path class="cls-17" d="M320.8,511.26A217,217,0,0,1,273,530.17" transform="translate(-149.86 -135.19)"/><path class="cls-17" d="M268.56,536.64s-4,6,0,21.89c1,5,7,38.81-2,50.76" transform="translate(-149.86 -135.19)"/><path class="cls-17" d="M341.21,616.26s-23.89,11.94-69.67,0" transform="translate(-149.86 -135.19)"/><path class="cls-17" d="M321.3,532.66s23.89,35.83,19.9,71.66" transform="translate(-149.86 -135.19)"/><path class="cls-17" d="M464.12,569.85s-14.93,19-34.83,20" transform="translate(-149.86 -135.19)"/><path class="cls-17" d="M348.67,573s25.88,15.92,50.76,16.92" transform="translate(-149.86 -135.19)"/><path class="cls-17" d="M260.59,539.63s-25.13,15.6-69.73,26.58a34.16,34.16,0,0,0-19.48,13C160,594.89,144,627.15,155.1,673" transform="translate(-149.86 -135.19)"/><path class="cls-17" d="M331.25,623.22s10,36.82,3,52.75" transform="translate(-149.86 -135.19)"/><path class="cls-17" d="M324.29,676s-84.59,15.92-166.2,0" transform="translate(-149.86 -135.19)"/><path class="cls-17" d="M510.39,666s-47.77,17.91-169.19,7" transform="translate(-149.86 -135.19)"/><path class="cls-18" d="M572.14,335.76s-4.94-10.34-20.62-9.07" transform="translate(-149.86 -135.19)"/><path class="cls-18" d="M509.72,317s-31.87-16.51-57.68,1.51" transform="translate(-149.86 -135.19)"/><path class="cls-19" d="M568.12,291.82c6,19.82,2.55,35.36-5,54.33-2.1,5.29-3.73,9.46-2.51,15.26,1.13,5.35,4.4,10.92,3,16.5a513.41,513.41,0,0,1-10,53.13,214.34,214.34,0,0,1-7.85,26c-3.37,8.68-9,16-12.66,24.35-2.46,5.56-2.93,14.18-6.53,18.81-2.94,3.79-8.85,4.55-13.26,4.55" transform="translate(-149.86 -135.19)"/><path class="cls-20" d="M522.4,348.15s7.65,35.71,16.74,50.71a5.78,5.78,0,0,1,0,5.94c-2.11,3.56-6.22,8.71-12.63,9.46" transform="translate(-149.86 -135.19)"/><path class="cls-21" d="M541.62,340.79s12.93-3.15,22.61,4.17" transform="translate(-149.86 -135.19)"/><path class="cls-19" d="M346.18,326.65s-6-7-11.94-5" transform="translate(-149.86 -135.19)"/><path class="cls-21" d="M500.24,338.11s-21.27-12.9-40-.06" transform="translate(-149.86 -135.19)"/><path class="cls-19" d="M501.93,503.3s-105.49-9-111.46-57.72" transform="translate(-149.86 -135.19)"/><path class="cls-19" d="M388.48,374.92s-3,15.92,2,40.8" transform="translate(-149.86 -135.19)"/><path class="cls-19" d="M330.26,339.59s1,16.92,10,29.86" transform="translate(-149.86 -135.19)"/><path class="cls-19" d="M459.64,501.81s3,39.81-9,60.71" transform="translate(-149.86 -135.19)"/><path class="cls-19" d="M324.29,525.69c6-15.92,9-38.81,9-38.81" transform="translate(-149.86 -135.19)"/><path class="cls-19" d="M430.78,511.76a20.19,20.19,0,0,1-4,15.92" transform="translate(-149.86 -135.19)"/><path class="cls-22" d="M528.81,456.52" transform="translate(-149.86 -135.19)"/><path class="cls-19" d="M468,428.3c20.66-3.32,63.42,2.89,63.42,2.89s1.9,24.15-17.86,31.95a22,22,0,0,1-14.16.68c-8.25-2.37-20.76-9.14-26.66-29" transform="translate(-149.86 -135.19)"/><path class="cls-5" d="M474,331.13a7,7,0,0,1,3,.13,5.67,5.67,0,0,1,6.37,2.43A11.13,11.13,0,0,1,485,344.48a8.84,8.84,0,0,1-10.67,5.08,10,10,0,0,1-6.86-9.28C467.26,336.33,469.89,331.85,474,331.13Z" transform="translate(-149.86 -135.19)"/><path class="cls-5" d="M547.21,340.18a5.48,5.48,0,0,1,2.32.1,4.44,4.44,0,0,1,5,1.9,8.73,8.73,0,0,1,1.27,8.46,6.93,6.93,0,0,1-8.36,4,7.82,7.82,0,0,1-5.38-7.27C541.91,344.25,544,340.74,547.21,340.18Z" transform="translate(-149.86 -135.19)"/><path class="cls-19" d="M529.15,446.65S514.42,483,481.55,452" transform="translate(-149.86 -135.19)"/><path class="cls-5" d="M505.83,442.58a106.87,106.87,0,0,1,23.38,1c2.5.38,1.44,3.26-1.06,2.88a102,102,0,0,0-22.33-.89C503.28,445.73,503.3,442.75,505.83,442.58Z" transform="translate(-149.86 -135.19)"/><path class="cls-19" d="M475.58,442.34s9.94-.24,11.93-.24" transform="translate(-149.86 -135.19)"/><path class="cls-19" d="M330.83,539.67s33.12,52.07,105.26,28.82" transform="translate(-149.86 -135.19)"/><path class="cls-6" d="M534.78,182.84s-23.89-21.89-62.7-21.89C473.07,160.94,498.95,159.95,534.78,182.84Z" transform="translate(-149.86 -135.19)"/><path class="cls-6" d="M439.24,150s-46.78-7.83-82.6,26.84C361.61,174.3,399.43,148.74,439.24,150Z" transform="translate(-149.86 -135.19)"/><path class="cls-6" d="M566.62,236.58s13.93,17.91,4,39.81C570.6,276.39,575.58,251.51,566.62,236.58Z" transform="translate(-149.86 -135.19)"/></g></svg>