<svg id="Layer_4" data-name="Layer 4" xmlns="http://www.w3.org/2000/svg" viewBox="0 0 275.22 275.22"><defs><style>.cls-1{fill:#a9e7e5;}</style></defs><title>Facebook</title><path class="cls-1" d="M322.41,62.39H77.59A15.19,15.19,0,0,0,62.39,77.59V322.43a15.19,15.19,0,0,0,15.19,15.18H209.4V231H173.53V189.5H209.4V158.87c0-35.55,21.71-54.91,53.43-54.91a294.21,294.21,0,0,1,32.05,1.64v37.15h-22c-17.25,0-20.58,8.2-20.58,20.22v26.52h41.13L288.08,231H252.3V337.61h70.13a15.19,15.19,0,0,0,15.17-15.19V77.59A15.19,15.19,0,0,0,322.41,62.39Z" transform="translate(-62.39 -62.39)"/></svg>