<svg id="Layer_1" data-name="Layer 1" xmlns="http://www.w3.org/2000/svg" viewBox="0 0 317.96 310.13"><defs><style>.cls-1{fill:#addee0;}</style></defs><title>GitHub</title><path class="cls-1" d="M200,44.93A159,159,0,0,0,149.73,354.8c7.95,1.47,10.86-3.45,10.86-7.65,0-3.79-.15-16.32-.21-29.6-44.23,9.62-53.56-18.76-53.56-18.76-7.24-18.37-17.67-23.26-17.67-23.26-14.43-9.87,1.09-9.67,1.09-9.67,16,1.12,24.37,16.39,24.37,16.39,14.2,24.31,37.19,17.28,46.27,13.22,1.43-10.26,5.52-17.29,10.09-21.26-35.31-4-72.44-17.66-72.44-78.57a61.47,61.47,0,0,1,16.39-42.68c-1.65-4-7.1-20.17,1.58-42.08,0,0,13.35-4.27,43.73,16.3a150.77,150.77,0,0,1,79.63,0c30.32-20.58,43.65-16.32,43.65-16.32,8.68,21.9,3.21,38.08,1.58,42.08,10.19,11.13,16.36,25.32,16.36,42.68,0,61.07-37.19,74.51-72.59,78.45,5.7,4.93,10.79,14.61,10.79,29.44,0,21.3-.18,38.4-.18,43.63,0,4.23,2.86,9.19,10.92,7.63A159,159,0,0,0,200,44.93Z" transform="translate(-41.02 -44.93)"/></svg>