<svg id="Layer_3" data-name="Layer 3" xmlns="http://www.w3.org/2000/svg" viewBox="0 0 287.62 287.62"><defs><style>.cls-1{fill:#a9e7e5;}</style></defs><title>Instagram</title><path class="cls-1" d="M200,82.11c38.4,0,43,.14,58.12.84,39,1.77,57.18,20.26,58.95,58.95.7,15.16.83,19.71.83,58.11s-.14,43-.83,58.11c-1.79,38.65-19.94,57.18-58.95,58.95-15.17.7-19.7.84-58.12.84s-43-.14-58.11-.84c-39.07-1.79-57.18-20.36-58.95-59-.7-15.16-.84-19.7-.84-58.11s.16-42.94.84-58.11c1.79-38.67,19.94-57.18,58.95-58.95C157.06,82.26,161.6,82.11,200,82.11Zm0-25.92c-39.06,0-43.95.17-59.28.86-52.23,2.4-81.25,31.37-83.65,83.65-.71,15.35-.87,20.24-.87,59.3s.17,44,.86,59.3c2.4,52.23,31.37,81.25,83.65,83.65,15.35.7,20.24.86,59.3.86s44-.17,59.3-.86c52.18-2.4,81.28-31.37,83.64-83.65.71-15.34.87-20.24.87-59.3s-.17-43.95-.86-59.28c-2.35-52.18-31.36-81.25-83.64-83.65C244,56.36,239.06,56.19,200,56.19Zm0,70A73.85,73.85,0,1,0,273.85,200,73.85,73.85,0,0,0,200,126.15Zm0,121.78A47.94,47.94,0,1,1,247.94,200,47.93,47.93,0,0,1,200,247.94Zm76.77-142A17.26,17.26,0,1,0,294,123.24,17.26,17.26,0,0,0,276.77,106Z" transform="translate(-56.19 -56.19)"/></svg>