<svg id="Layer_2" data-name="Layer 2" xmlns="http://www.w3.org/2000/svg" viewBox="0 0 279.3 279.25"><defs><style>.cls-1{fill:#a9e7e5;}</style></defs><title>Linkedin</title><path class="cls-1" d="M339.63,80.48a23.77,23.77,0,0,0-.87-5.89c-1.79-6.86-9.13-14.23-19.94-14.22q-100.23.22-200.48.07c-12.63,0-25.24-.07-37.89,0a19.78,19.78,0,0,0-20.1,19.46q0,.41,0,.83V319.37a21.8,21.8,0,0,0,.2,3.11c1.43,9.9,10.3,17.2,20.77,17.14,39.47-.23,78.94-.08,118.4-.08H275c14.9,0,29.79.07,44.7,0A19.76,19.76,0,0,0,339.64,320q0-.28,0-.56Q339.66,199.93,339.63,80.48ZM143.52,296.15c0,2.49-.89,3.11-3.18,3.1q-17.9-.11-35.79,0c-2.4,0-3.29-.66-3.28-3.23.1-21.25,0-42.5,0-63.7V168.84c0-3.61,0-3.61,3.74-3.61h35.27c2.28,0,3.21.48,3.2,3Q143.38,232.18,143.52,296.15ZM122.25,147.27a24.24,24.24,0,1,1,24.4-24.08v.13a24,24,0,0,1-24.08,24h-.35Zm173.33,152q-17.78-.17-35.54,0c-2.69,0-3.4-.91-3.39-3.49.08-22,.16-43.9,0-65.86A77.28,77.28,0,0,0,255,213.69c-2.24-9.89-8.41-14.55-18.45-14.67a35.83,35.83,0,0,0-9,.84c-9.61,2.4-13.79,9.72-15.4,18.75A77.9,77.9,0,0,0,211,231.83q-.16,32,0,64c0,2.61-.67,3.47-3.34,3.45q-17.78-.19-35.54,0c-2.66,0-3.39-.83-3.38-3.45q.11-63.64,0-127.27c0-2.55.58-3.47,3.32-3.44,11.41.16,22.83.13,34.24,0,2.4,0,3.16.78,3.09,3.14-.14,4.81,0,9.61,0,15.17A45,45,0,0,1,232,164.56c8.55-3.28,17.35-3.17,26.22-2.21A46.4,46.4,0,0,1,278.66,169c10,6.43,14.94,16.22,17.56,27.39a123.72,123.72,0,0,1,2.7,28.75q-.1,35.41,0,70.82C298.8,298.47,298.14,299.33,295.58,299.3Z" transform="translate(-60.35 -60.38)"/></svg>