<svg xmlns="http://www.w3.org/2000/svg" viewBox="0 0 442.01 568.76"><defs><style>.cls-1{fill:#a9e7e5;}.cls-2{fill:#fff;}.cls-3{fill:#eab488;}.cls-4{fill:#93633e;}.cls-5{fill:#121819;}.cls-6{fill:#090b0c;}.cls-7{fill:#0c1011;}.cls-17,.cls-18,.cls-19,.cls-20,.cls-21,.cls-22,.cls-23,.cls-8{fill:none;stroke-miterlimit:10;}.cls-8{stroke:#a9e7e5;stroke-width:1px;}.cls-9{fill:#f9c198;}.cls-10{fill:#ffb3b3;}.cls-11{fill:#d37979;}.cls-12{fill:#e8ef8b;}.cls-13{fill:#009245;}.cls-14{fill:#c1272d;}.cls-15{fill:#22b573;}.cls-16{fill:#005a82;}.cls-17,.cls-18{stroke:#0a0a0e;}.cls-17,.cls-18,.cls-19,.cls-20,.cls-21,.cls-22,.cls-23{stroke-linecap:round;}.cls-17,.cls-22,.cls-23{stroke-width:3.98px;}.cls-18,.cls-20,.cls-21{stroke-width:2.99px;}.cls-19,.cls-21,.cls-22{stroke:#0c1011;}.cls-19{stroke-width:5.97px;}.cls-20,.cls-23{stroke:#090b0c;}</style></defs><title>vectorized</title><g id="Layer_2" data-name="Layer 2"><path class="cls-1" d="M610.33,237.69c-.41-9.27-3.46-18.88-10.49-25.33-6.58-6-16.06-11.47-25.33-10.49a61.32,61.32,0,0,1-9,.27q-2.7-.61-5.34-1.47-2.2-1.17-4.28-2.51c-5.12-4.65-9.63-9.89-14.43-14.89a99.71,99.71,0,0,0-44.52-27.84l-.1-.11c-6.9-6.9-15.8-9.9-25.33-10.49q-6.5-.4-13-1.13a243.9,243.9,0,0,1-47.42-12.28c-15.49-5.76-29.83-12.57-46.38-14.79A88.32,88.32,0,0,0,307,128.34c-26,15.58-41.83,41.11-51.75,68.85-10.22,13-19.81,26.54-29.69,39.73l-17.21,23c-2.65,3.54-5.72,7-7.82,10.9-5.84,10.8-6.63,22-4.6,33.86,1.84,10.81,7.43,21.65,11.85,31.51a212.18,212.18,0,0,0,11.91,22.75c7,11.69,16.61,22.08,23.59,33.85-3.49,2.08-7.09,4-10.66,6a57.61,57.61,0,0,0-26.34,31c-6.72,18.53-1.89,41.76,8.37,58.15s26.45,29.89,45.44,34.93c.45.12.9.21,1.35.31.74,7.27,2.33,13.69,6.18,20.26,4.19,7.17,9.55,11.61,16.12,16.37,12.21,8.83,27.13,14.89,41.54,19,19.32,5.45,38.12-6.64,44.07-25s-7-39-25-44.07c-1.76-.5-3.51-1-5.24-1.61A44.4,44.4,0,0,0,350,504c7.75-4.1,14.18-13.1,16.47-21.41S368,462.16,362.86,455a356.86,356.86,0,0,0-33.47-41A32.92,32.92,0,0,0,316,405.53a58.22,58.22,0,0,0-2.83-31.68A105.08,105.08,0,0,0,299.93,349c-3.42-4.69-7-9.26-10.35-14,6.88-28.43,17.23-63.3,30.1-81.54,0,0-23.26,31.22-34.16,75.57a216.68,216.68,0,0,1-16.85-31.32v0c2.29-3,4.67-5.88,6.87-8.81L288.6,271.5q6.36-8.49,12.68-17a31,31,0,0,0,8.8-6.47,170,170,0,0,1,14-13.36c9.12,7.4,24,16.56,43.78,18.85,1-.82-24.4-5.72-43.36-19.2.57-.48,1.16-.95,1.74-1.43a170,170,0,0,1,17.31-11c12.06-6.66,17.94-20,17.4-33.23,12.83,3.59,25.06,9.56,37.62,14.09-1.4.31-2.82.64-4.24,1,1.71-.11,3.54-.31,5.52-.55,1.79.63,3.59,1.24,5.4,1.79a253.6,253.6,0,0,0,26.24,6.5,29.66,29.66,0,0,0,8.75,7.17l8.56,3.61a37.28,37.28,0,0,0,5.89,1.07c10,22.47,19.62,54.74,15.43,90.88a145,145,0,0,0-12.17-90.68,36,36,0,0,0,7.07-.63q3.38-.15,6.74,0a71.06,71.06,0,0,1,7.28,2,67.69,67.69,0,0,1,6.07,3.53c4.48,4.05,8.49,8.56,12.62,13A118.44,118.44,0,0,0,519.47,260c15.58,10.17,36.52,15.51,55,13.56,9.76-1,18.15-3.31,25.33-10.49C606,256.81,610.73,246.61,610.33,237.69Z" transform="translate(-173.16 -115.78)"/><path class="cls-1" d="M478.67,392.31c-8.76.26-14.89,6.11-19.44,13.77a71,71,0,0,0-4.09,8.14c-4.94,15.44-17.88,37.33-2,51.26,6-21.89,10-46.78,26.08-63.68C481.77,398.36,482,394.41,478.67,392.31Z" transform="translate(-173.16 -115.78)"/><path class="cls-1" d="M497.91,259.55c-1.93-5.05-5.92-4.06-9.9-4.06a56.56,56.56,0,0,1,.74,9.12c0,3.21-.17,6.56-.46,10,.71,23.68-11.23,49.56.71,71.45,13.93-19.9,10.95-45.78,10.9-68.89q0-4.85-.28-9.7A52.31,52.31,0,0,0,497.91,259.55Z" transform="translate(-173.16 -115.78)"/><path class="cls-2" d="M307.9,548.7,314,565.5s97,5,130-38c21-2,18,14,18,14L429.79,672.71S293,685.5,239.5,661c-12-16,20-80,20-80S251.79,560.89,307.9,548.7Z" transform="translate(-173.16 -115.78)"/><path class="cls-3" d="M457.66,330.63,357.14,199.26,208.86,224.14s-6,32.84-8,40.8c-8,26.87-7,53.74-7,53.74l10.69,36.22s-4,20.27-3.46,21.74c-.73,24.12,20.37,85.62,20.37,85.62l9.33,17,6.49,19.34c6.59,13.72,58.1-.78,68.05-3.77-.07.69-.12,1.36-.17,2l0,0c4.81-4.24,12.53-4.61,18.43-6.43a114.2,114.2,0,0,0,20.49-8.68,6.5,6.5,0,0,1,.77-.34,23.06,23.06,0,0,1,10.41-8.23c3.23-1.31,7.15,1.44,8,4.52,1,3.66-1.26,6.63-4.52,8-5.34,2.17-6.69,10.38-7.53,15.3a165.8,165.8,0,0,0-2.18,26.31c-.07,7,1.5,15.19-.7,21.92-2.07,6.33-9.17,8.62-15.19,9.13-10.17.86-19.1-4.13-24.5-12.06a109.73,109.73,0,0,0,5.68,18.26c94.55,29.86,126.39-32.84,126.39-34.83-7-12.94-10.95-56.73-10.95-56.73Z" transform="translate(-173.16 -115.78)"/><path class="cls-4" d="M333.17,558.3c6-.51,13.12-2.8,15.19-9.13,2.21-6.72.63-15,.7-21.92a165.8,165.8,0,0,1,2.18-26.31c.84-4.91,2.19-13.13,7.53-15.3,3.26-1.32,5.48-4.29,4.52-8-.81-3.08-4.72-5.83-8-4.52a23.06,23.06,0,0,0-10.41,8.23,6.5,6.5,0,0,0-.77.34,114.2,114.2,0,0,1-20.49,8.68c-5.9,1.82-13.62,2.2-18.43,6.43l0,0a160.27,160.27,0,0,0,3.45,49.36C314.07,554.17,323,559.16,333.17,558.3Z" transform="translate(-173.16 -115.78)"/><path class="cls-2" d="M233.24,431.64s34.07-5.58,60.33-3.79c.76-.39-2.78,24.91-25.58,34.75-1.81.77-20,6.77-28.86-10.11C236.31,446.61,234.23,442.59,233.24,431.64Z" transform="translate(-173.16 -115.78)"/><path class="cls-1" d="M440.77,518.36c-1.78-7.46-4.19-14.78-5.52-22.34s-1-15.23-1.47-22.95c-.45-7.37-2.08-14.38.58-21.55a6.33,6.33,0,0,1,.75-1.42l-2.86-24.66c-.55-4.76-1.23-9.55-1.8-14.36.64-15.16,4-29.76,14.25-42.37,3.43-4.22.65-9.66-3.15-11,5.06-11.77,8.64-24.48,3-36.58-3.42-7.28-10.7-12.73-18.84-13.13-7.59-.37-13.55,4.16-18.53,9.36-2.88,3-5.47,5.92-9.24,7.84-4.38,2.23-9,3.57-12.89,6.68a52,52,0,0,0-9.67,10.8,100.47,100.47,0,0,0-9.15-23.09c-6.49-11.79-16.68-21.73-21-34.68-4.61-14-1.69-26.91,2.85-40.41,3.79-11.26,9.52-26,1.36-36.7-5-6.54-16.22-.1-11.17,6.53,3.65,4.79,2.29,10.51.79,15.91-1.79,6.45-4.25,12.7-6.14,19.12-3.77,12.77-4.35,26.22-.16,39,4.11,12.56,12.72,22.23,19.6,33.25a89.26,89.26,0,0,1,13.08,37.8c.69,6.46,8.2,8.7,12.05,3.27,4.52-6.38,8.67-14.1,14.29-19.56,5.08-4.94,12.81-6,18.32-10.52,4.09-3.38,7.82-10,13.14-11.45,7.07-1.91,10.94,6.69,11.16,12.29.57,14.76-9.73,28-14.54,41.39-4.07,11.3-3.74,23-2.5,34.66-.45,12.36.81,24.93,1.65,37.15,1.07,15.75,2.7,31.55,6.13,47,3,13.38,7.11,27.38,14.61,39.06C441.18,528,442.06,523.78,440.77,518.36Z" transform="translate(-173.16 -115.78)"/><path class="cls-5" d="M478.47,276.59c-11.84-90-54.16-96.76-55.14-97.74-16.92-46.78-61.66-41.49-62.74-42.11-20.16,3.37-36.12,4.38-44.52,5a61.45,61.45,0,0,1-13.1-.38c-60.92-8.32-78.48,24-83.42,32.88-.93,1.66-.78,4-2.27,5.22-17.38,13.78-31.31,33.68-28.65,43.34.75,2.73-3.17,4.71-4.09,7.39C168.2,277.92,198,282.8,198,282.8c2.55-21.46,6.4-30.29,6.4-30.29,3.8-10.15,11.25-17.46,16.14-21.44a24.69,24.69,0,0,1,9.09-4.65c17.56-4.78,84-21.84,116.94-15.67a4.47,4.47,0,0,1,3.58,5c-1,7.27-2.34,14.53-4.11,21.67a96.39,96.39,0,0,1-3.56,11.7c-1.49,3.86-3.87,7.2-4.74,11.3-3.43,16.18,1,33.92,15,43.79.86.86,15.74,22.38,20.49,48.05a2.06,2.06,0,0,0,4,.21c3.37-11.45,10.8-27,26.53-29.17a4.32,4.32,0,0,0,2.79-1.59c4.52-5.68,22.37-25.64,35.24-4.09a37.14,37.14,0,0,1,3.87,28.09c-3.34,13.28-9.72,33.83-18.29,39.11-.77.47-1.33,2.82-1.75,5.55h0s-2.5,50.19,3.61,91a1.75,1.75,0,0,0,3.48-.14c1-14.22.42-28.66,3.93-42.81,4.32-17.43,13.6-32.69,21-48.92a228.22,228.22,0,0,0,15.22-48.42,316.8,316.8,0,0,0,5.55-40.54c.34-4.65.59-9.3.7-14A65.17,65.17,0,0,0,478.47,276.59Z" transform="translate(-173.16 -115.78)"/><path class="cls-6" d="M430.89,484.41a3.19,3.19,0,0,1-3.2-2.76c-6.07-40.51-3.65-90.81-3.63-91.31l0-.15c.72-4.67,1.5-6,2.44-6.6,6.12-3.77,12.38-17.34,17.63-38.2a35.87,35.87,0,0,0-3.71-27c-3.4-5.69-7.4-8.73-11.88-9-9.11-.6-18.31,10-20.91,13.28a5.79,5.79,0,0,1-3.76,2.14c-14.67,2-21.86,16.41-25.3,28.11a3.55,3.55,0,0,1-6.91-.36c-4.71-25.44-19-45.84-20-47.22-13.17-9.44-19.21-27.16-15.38-45.2a31,31,0,0,1,2.93-7.45c.66-1.33,1.35-2.7,1.88-4.09a93.22,93.22,0,0,0,3.5-11.52,219,219,0,0,0,4.08-21.52,3,3,0,0,0-2.37-3.37C314,206.16,249.11,222.66,230,227.86a23.1,23.1,0,0,0-8.54,4.37c-5.17,4.2-12.09,11.21-15.69,20.8-.07.16-3.83,9-6.32,29.94l-.18,1.55-1.54-.26A23.8,23.8,0,0,1,182.42,273c-6-10-5.72-24.56.7-43.29a10.87,10.87,0,0,1,2.38-3.51c1.19-1.34,1.9-2.21,1.68-3-3-11,12.77-31.91,29.16-44.91a4.31,4.31,0,0,0,1-2.25,10.49,10.49,0,0,1,.9-2.53l.12-.21A62.38,62.38,0,0,1,239.75,150c16-10.22,37.35-13.6,63.41-10a60,60,0,0,0,12.78.38l2.64-.2c8.83-.67,23.6-1.79,41.75-4.82l.52-.09.22.12h1.15c30.06,0,52.16,15.1,62.28,42.41l.29.1c16.48,5.54,45.57,25.71,55.16,98.57h0a66.9,66.9,0,0,1,.54,10.28c-.1,4.38-.33,9-.7,14a319.36,319.36,0,0,1-5.57,40.73,227.65,227.65,0,0,1-15.32,48.73c-2.11,4.66-4.41,9.3-6.63,13.78-5.5,11.1-11.19,22.58-14.23,34.87-2.52,10.17-2.93,20.72-3.33,30.92-.15,3.81-.3,7.76-.56,11.63a3.2,3.2,0,0,1-3.11,3ZM427,390.57c-.11,2.24-2.31,51.17,3.6,90.64,0,.1,0,.21.26.22s.24-.14.25-.24c.26-3.83.41-7.75.56-11.55.4-10.35.82-21.05,3.41-31.52,3.12-12.61,8.88-24.24,14.45-35.48,2.21-4.46,4.5-9.08,6.59-13.69a224.72,224.72,0,0,0,15.12-48.1,316.38,316.38,0,0,0,5.52-40.35c.36-5,.59-9.55.69-13.89a63.74,63.74,0,0,0-.51-9.82h0c-4.56-34.63-14.1-60.92-28.37-78.15-7.36-8.88-15.69-14.93-24.78-18a3.63,3.63,0,0,1-1.57-.74l-.24-.24-.11-.31c-9.7-26.81-30.34-41-59.7-41.06-.82,0-1.31,0-1.66,0-18.15,3-32.91,4.14-41.74,4.81l-2.64.2a63.14,63.14,0,0,1-13.42-.39c-39.44-5.39-67,5.35-81.79,31.92l-.12.21a8.07,8.07,0,0,0-.62,1.82,6.59,6.59,0,0,1-2,3.84c-17.64,14-30.52,33.12-28.14,41.78.66,2.41-1,4.28-2.33,5.77a8.7,8.7,0,0,0-1.78,2.49c-6.12,17.85-6.44,31.57-1,40.77a21.4,21.4,0,0,0,11.72,9.42c2.54-20.2,6.15-28.65,6.31-29,3.8-10.15,11.11-17.57,16.57-22a26.07,26.07,0,0,1,9.64-4.93c19.26-5.24,84.67-21.87,117.61-15.69A6,6,0,0,1,351.6,216a222,222,0,0,1-4.14,21.81,96.06,96.06,0,0,1-3.62,11.88c-.59,1.52-1.3,3-2,4.34a28.35,28.35,0,0,0-2.68,6.73c-3.59,16.95,2,33.54,14.35,42.26l.19.16c1.18,1.18,16.17,23.25,20.9,48.83a.57.57,0,0,0,1.11.06c3.69-12.54,11.5-28,27.76-30.22a2.82,2.82,0,0,0,1.83-1c3.62-4.56,13.16-15.11,23.45-14.4,5.52.37,10.32,3.89,14.25,10.48a38.87,38.87,0,0,1,4,29.22c-3.83,15.24-10.21,34.52-18.87,40C428.05,386.27,427.57,387.17,427,390.57ZM360.91,135.3Z" transform="translate(-173.16 -115.78)"/><path class="cls-1" d="M413.37,175.87s-14.93-42.79-62.7-29.86C349.68,147,388.49,135.07,413.37,175.87Z" transform="translate(-173.16 -115.78)"/><path class="cls-1" d="M215.32,187.82s-30.85,25.88-29.86,68.67C187.46,252.5,192.43,212.7,215.32,187.82Z" transform="translate(-173.16 -115.78)"/><path class="cls-1" d="M236.22,171.89S253.14,141,309.87,149C309.87,151,252.15,146,236.22,171.89Z" transform="translate(-173.16 -115.78)"/><path class="cls-1" d="M304.89,167.91s39.81-4,76.63,22.89c-10.95-3-33.84-22.89-79.62-22.89" transform="translate(-173.16 -115.78)"/><path class="cls-1" d="M279,185.82s-34.83-8-56.73,18.91C222.29,206.72,236.22,184.83,279,185.82Z" transform="translate(-173.16 -115.78)"/><path class="cls-1" d="M366.6,222.65s-5,25.88-12.94,37.82c-3,5-10,16.92,4,31.85,2,2,10.95,9,11.94,17.91,0,0,1-10.95-13.93-23.89,0-1-10-7,1-27.87C356.65,254.49,367.59,233.6,366.6,222.65Z" transform="translate(-173.16 -115.78)"/><path class="cls-7" d="M293.95,194.78s-69.67-5-93.55,33.84C201.39,228.62,239.21,196.77,293.95,194.78Z" transform="translate(-173.16 -115.78)"/><path class="cls-7" d="M291,181.84s46.78-6,90.57,19.9C370.58,199.76,349.68,186.82,291,181.84Z" transform="translate(-173.16 -115.78)"/><path class="cls-7" d="M388.49,222.65s34.83,36.82,33.84,74.64C420.34,293.31,411.38,248.52,388.49,222.65Z" transform="translate(-173.16 -115.78)"/><path class="cls-7" d="M368.59,245.54s33.84,35.83,23.89,72.65C392.47,315.2,397.45,285.35,368.59,245.54Z" transform="translate(-173.16 -115.78)"/><path class="cls-8" d="M715.52,323" transform="translate(-173.16 -115.78)"/><path class="cls-9" d="M343,366.81c-15.18-10.59-46-10.59-62-1.22,17.91,2,35.83-.67,53.18,2.15C339.61,368.2,343,367.9,343,366.81Z" transform="translate(-173.16 -115.78)"/><path class="cls-9" d="M226.81,369c-5.83-4.17-15.77-2.35-20.07,3.09,5.95-.1,11.49-2.44,17.33-2.12C225.85,369.9,226.9,369.56,226.81,369Z" transform="translate(-173.16 -115.78)"/><path class="cls-1" d="M470.68,309.8s11.36-82.18-41.38-123C429.3,186.82,483,217.67,470.68,309.8Z" transform="translate(-173.16 -115.78)"/><path class="cls-7" d="M419.34,180.85s-18.91,23.89-47.77,28.86C371.57,210.71,404.42,205.73,419.34,180.85Z" transform="translate(-173.16 -115.78)"/><path class="cls-7" d="M418.35,202.74s48.77,50.76,37.82,128.38C457.16,329.14,458.16,252.5,418.35,202.74Z" transform="translate(-173.16 -115.78)"/><path class="cls-7" d="M457.16,359s-24.88,47.77-25.88,72.65C430.29,427.66,433.28,392.83,457.16,359Z" transform="translate(-173.16 -115.78)"/><path class="cls-10" d="M306.81,541.95c1.13-5.12-4.33-11.27-10.25-7.83-6.35,3.68-14.51,3.48-21.52,5.22a97.54,97.54,0,0,0-21.63,8.29c-8,4.19-14.95,10-22.16,15.35a5.45,5.45,0,0,0-5.26.87l-20.62,15.85c-5.72,4.4-11.68,8.7-16.3,14.3-10.69,13-11,31.15-13.49,47.08-1.09,7-3.94,17-.23,23.61,3.86,6.88,13.91,7,20.82,7.83a123.9,123.9,0,0,0,25.21.47c4-.33,9.2-.45,13.85-1.58,5.1,2.92,11.25-2.22,10.36-7.35,3.59-7.07,2.06-16.89,1.78-24.32a44.43,44.43,0,0,1,1.41-14c.54-1.95,1.18-3.87,1.83-5.79a12.85,12.85,0,0,0,.95-2.63,1.58,1.58,0,0,1,.25-.84c4.53,1.15,8.3-1.55,8.94-6.53,3.29-25.44,25.31-43.23,44.4-57.67C309.14,549.19,309.08,544.72,306.81,541.95Z" transform="translate(-173.16 -115.78)"/><path class="cls-10" d="M589.42,574.47c-15-8.45-71.55-32.35-75.53-34.34C499,537.14,438.06,508,438.06,508l5,26.06a45.13,45.13,0,0,1-2.75,7.39,16.34,16.34,0,0,0-2,1.59,15.22,15.22,0,0,0-4.1,6.87,16.73,16.73,0,0,0-.48,4.3,58.83,58.83,0,0,0-2.49,5.62,45.22,45.22,0,0,0-2.18,8.52,29.7,29.7,0,0,0-3.52,6.8c-2.07,6.17-2.39,13.21-3.35,19.63-.44,3,.11,5.91,2.24,7.93a36.91,36.91,0,0,0-1.1,7c0,10.95,5.17,7.8,14.73,9.12-11.14,15.09-9.26,33.45-8.26,53.8,60.21,19.13,143.81,7.74,176.65,6.75C628.34,607.8,589.63,575.45,589.42,574.47Z" transform="translate(-173.16 -115.78)"/><path class="cls-11" d="M438.25,508.28l79.34,33.52s-62.42-11.62-76.85-21.08C441.74,518.73,438.25,508.28,438.25,508.28Z" transform="translate(-173.16 -115.78)"/><path class="cls-11" d="M304.89,533.16s-39.81,4-55.73,16.92c-1.87,1.7,29.86-2,56.73-13.35C304.89,536.55,304.89,533.16,304.89,533.16Z" transform="translate(-173.16 -115.78)"/><path class="cls-2" d="M238.25,554.21c-19.47,9.33-31.69,28.22-42.17,46.31-5.69,9.83-6.69,20.15-9.6,30.88-3.08,11.33-5.68,22.28-6,34.09-.17,6.41,9.78,6.4,10,0,.28-10.63,2.59-20.43,5.41-30.61s3.48-20.11,8.83-29.34c9.65-16.66,20.67-34.15,38.6-42.74C249,560,244,551.46,238.25,554.21Z" transform="translate(-173.16 -115.78)"/><path class="cls-2" d="M447.08,625A452.4,452.4,0,0,0,446,675.33c.22,6.39,10.17,6.42,10,0A452.4,452.4,0,0,1,457,625C457.53,618.66,447.57,618.69,447.08,625Z" transform="translate(-173.16 -115.78)"/><path class="cls-12" d="M255.37,549.11c-9.8,5.54-19.78,11.22-27.82,19.22-8.36,8.33-14.31,19.15-19.9,29.44-11.84,21.79-17,46.09-19.22,70.6-.35,3.83,5.63,3.8,6,0,2.12-23.44,7.09-46.75,18.4-67.59,5.21-9.6,10.7-19.78,18.39-27.64s17.59-13.45,27.19-18.88C261.73,552.37,258.72,547.21,255.37,549.11Z" transform="translate(-173.16 -115.78)"/><path class="cls-2" d="M579.49,616a132.26,132.26,0,0,0-6.6-31.07c1.77-1.16,3-3.39,2.21-5.5a38.44,38.44,0,0,0-3.88-7.6,5.49,5.49,0,0,0-4.79-2.46q-1.44-2.93-3-5.8c-3.1-5.6-11.7-.59-8.59,5a121.82,121.82,0,0,1,15,51.19c1.23,18.63.9,37.44,1.2,56.1.1,6.4,10.06,6.42,10,0C580.67,656,581.27,635.81,579.49,616Z" transform="translate(-173.16 -115.78)"/><path class="cls-12" d="M582.74,612.67c-1.79-17.24-2.85-36.35-14.37-50.27-2.45-3-6.66,1.28-4.22,4.22,11.41,13.79,11.61,35,13.2,51.92q2.77,29.39,2.62,58.94c0,3.84,6,3.85,6,0A606.5,606.5,0,0,0,582.74,612.67Z" transform="translate(-173.16 -115.78)"/><path class="cls-12" d="M455.85,623.55l-1.07,52.65c-.08,3.84,5.89,3.84,6,0l1.07-52.65C461.9,619.7,455.93,619.7,455.85,623.55Z" transform="translate(-173.16 -115.78)"/><path class="cls-13" d="M461.4,622.49l-.81,55.82a1.49,1.49,0,0,0,3,0l.81-55.82A1.49,1.49,0,0,0,461.4,622.49Z" transform="translate(-173.16 -115.78)"/><path class="cls-13" d="M586.26,618.18c-.79-9.13-1.8-18.25-3-27.33-1.13-8.7-4.46-16.85-8.33-24.69-.85-1.72-3.43-.21-2.58,1.51a81.9,81.9,0,0,1,8.4,27.11c1.1,9.08,2.1,18.17,2.82,27.29,1.46,18.49,2,37,2.49,55.58.05,1.92,3,1.93,3,0C588.52,657.81,588,638,586.26,618.18Z" transform="translate(-173.16 -115.78)"/><path class="cls-13" d="M224.84,579.62c-5.07,5.72-8.09,13.07-11.21,20-3.36,7.45-6.41,15-9,22.79a193.39,193.39,0,0,0-9.95,48.25c-.14,1.92,2.85,1.91,3,0a189.16,189.16,0,0,1,9.28-45.77c2.48-7.52,5.36-14.9,8.57-22.13s6.25-15.09,11.47-21C228.22,580.3,226.11,578.18,224.84,579.62Z" transform="translate(-173.16 -115.78)"/><path class="cls-13" d="M551,616.77c-1.83-19.77-2-41.08-9.43-59.73-.47-1.18-2.39-.66-1.92.53,3.74,9.38,5.34,18.94,6.35,28.94,1.08,10.72,2.22,21.44,3.18,32.17a290,290,0,0,1-.89,62.49c-.16,1.27,1.83,1.26,2,0A294.43,294.43,0,0,0,551,616.77Z" transform="translate(-173.16 -115.78)"/><path class="cls-14" d="M545.8,616.26q-.83-15.39-2.86-30.69c-1.34-10.12-2.46-20.73-6.44-30.2-.49-1.16-2.42-.65-1.92.53,4,9.41,5.07,19.9,6.4,29.94q2.13,16.1,2.92,32.34a399.86,399.86,0,0,1-2,63.21c-.14,1.27,1.85,1.26,2,0A399.71,399.71,0,0,0,545.8,616.26Z" transform="translate(-173.16 -115.78)"/><path class="cls-15" d="M211.74,573.77c-7.06,3.17-12,9.78-16.69,15.75A72.84,72.84,0,0,0,183.68,611a127.48,127.48,0,0,0-5.36,24.77c-1.26,9.75-2.87,20.08-2,29.91.11,1.27,2.1,1.28,2,0-.77-8.68.56-17.63,1.55-26.26a141.8,141.8,0,0,1,4.67-24.57,73.87,73.87,0,0,1,10.21-21.62c4.64-6.55,10.52-14.37,18-17.72C213.92,575,212.9,573.25,211.74,573.77Z" transform="translate(-173.16 -115.78)"/><path class="cls-16" d="M537,618c-.71-21.78-1.56-43.61-5.95-65-.51-2.51-4.35-1.45-3.84,1.06,4.32,21.06,5.11,42.54,5.81,64,.69,21.21,1.27,42.58-3.58,63.4-.58,2.49,3.26,3.56,3.84,1.06C538.2,661.3,537.69,639.59,537,618Z" transform="translate(-173.16 -115.78)"/><path class="cls-16" d="M485.72,621.52c-.15-3.83-6.12-3.85-6,0,.75,18.83-4,37.24-4.77,56-.15,3.84,5.82,3.84,6,0C481.67,658.76,486.47,640.35,485.72,621.52Z" transform="translate(-173.16 -115.78)"/><path class="cls-14" d="M494.51,617c-.17-1.26-2.09-.73-1.92.53,1.39,10.21-.85,21.36-1.7,31.58l-2.51,30.43c-.11,1.28,1.89,1.27,2,0L493,647.18C493.86,637.35,495.85,626.86,494.51,617Z" transform="translate(-173.16 -115.78)"/><path class="cls-16" d="M224.36,619.44a324.52,324.52,0,0,0-4.5,49.69c0,3.84,5.92,3.85,6,0a314.1,314.1,0,0,1,4.29-48.1C230.75,617.27,225,615.65,224.36,619.44Z" transform="translate(-173.16 -115.78)"/><path class="cls-14" d="M237.69,619.56a330.13,330.13,0,0,0-4.28,50,1.49,1.49,0,0,0,3,0,324.88,324.88,0,0,1,4.17-49.18C240.87,618.48,238,617.67,237.69,619.56Z" transform="translate(-173.16 -115.78)"/><path class="cls-2" d="M513.22,543.64c-1.27-5-9-2.86-7.68,2.12,5.59,21.81,3.32,43.8,2,66l-3.93,68.8c-.29,5.12,7.67,5.1,8,0l4-70.77C516.94,587.47,518.84,565.57,513.22,543.64Z" transform="translate(-173.16 -115.78)"/><path class="cls-17" d="M224.28,616.76s18.91,5,30.85,0" transform="translate(-173.16 -115.78)"/><path class="cls-17" d="M300.91,534.15s-55.73,14.93-72.65,45.78c-1,1-11.94,23.89-9,32.84" transform="translate(-173.16 -115.78)"/><path class="cls-17" d="M305.89,550.08s-43.79,29.86-45.78,59.71" transform="translate(-173.16 -115.78)"/><path class="cls-17" d="M266.9,542.26a265,265,0,0,0-37.51,19.42c-18.82,11.62-41.72,27.62-47.59,50.24a236.71,236.71,0,0,0-5.5,28.62c-1.1,8.39-2,17.7.21,26" transform="translate(-173.16 -115.78)"/><path class="cls-17" d="M247.17,666.52c-3-10,0-39.81,0-39.81" transform="translate(-173.16 -115.78)"/><path class="cls-17" d="M185.47,670.5s19.9,5,53.74,0" transform="translate(-173.16 -115.78)"/><path class="cls-18" d="M444.22,511.26A217,217,0,0,0,492,530.17" transform="translate(-173.16 -115.78)"/><path class="cls-18" d="M496.47,536.64s4,6,0,21.89c-1,5-7,38.81,2,50.76" transform="translate(-173.16 -115.78)"/><path class="cls-18" d="M423.82,616.26s23.89,11.94,69.67,0" transform="translate(-173.16 -115.78)"/><path class="cls-18" d="M443.73,532.66s-23.89,35.83-19.9,71.66" transform="translate(-173.16 -115.78)"/><path class="cls-18" d="M300.91,569.85s14.93,19,34.83,20" transform="translate(-173.16 -115.78)"/><path class="cls-18" d="M416.36,573s-25.88,15.92-50.76,16.92" transform="translate(-173.16 -115.78)"/><path class="cls-18" d="M504.44,539.63s25.13,15.6,69.73,26.58a34.16,34.16,0,0,1,19.48,13C605,594.89,621,627.15,609.93,673" transform="translate(-173.16 -115.78)"/><path class="cls-18" d="M433.77,623.22s-10,36.82-3,52.75" transform="translate(-173.16 -115.78)"/><path class="cls-18" d="M440.74,676s84.59,15.92,166.2,0" transform="translate(-173.16 -115.78)"/><path class="cls-18" d="M254.64,666s47.77,17.91,169.19,7" transform="translate(-173.16 -115.78)"/><path class="cls-19" d="M192.89,335.76s4.94-10.34,20.62-9.07" transform="translate(-173.16 -115.78)"/><path class="cls-19" d="M255.31,317s31.87-16.51,57.68,1.51" transform="translate(-173.16 -115.78)"/><path class="cls-20" d="M196.91,291.82c-6,19.82-2.55,35.36,5,54.33,2.1,5.29,3.73,9.46,2.51,15.26-1.13,5.35-4.4,10.92-3,16.5a513.41,513.41,0,0,0,10,53.13,214.34,214.34,0,0,0,7.85,26c3.37,8.68,9,16,12.66,24.35,2.46,5.56,2.93,14.18,6.53,18.81,2.94,3.79,8.85,4.55,13.26,4.55" transform="translate(-173.16 -115.78)"/><path class="cls-21" d="M242.63,348.15s-7.65,35.71-16.74,50.71a5.78,5.78,0,0,0,0,5.94c2.11,3.56,6.22,8.71,12.63,9.46" transform="translate(-173.16 -115.78)"/><path class="cls-22" d="M223.41,340.79s-12.93-3.15-22.61,4.17" transform="translate(-173.16 -115.78)"/><path class="cls-20" d="M418.85,326.65s6-7,11.94-5" transform="translate(-173.16 -115.78)"/><path class="cls-22" d="M264.79,338.11s21.27-12.9,40-.06" transform="translate(-173.16 -115.78)"/><path class="cls-20" d="M263.09,503.3s105.49-9,111.46-57.72" transform="translate(-173.16 -115.78)"/><path class="cls-20" d="M376.55,374.92s3,15.92-2,40.8" transform="translate(-173.16 -115.78)"/><path class="cls-20" d="M434.77,339.59s-1,16.92-10,29.86" transform="translate(-173.16 -115.78)"/><path class="cls-20" d="M305.39,501.81s-3,39.81,9,60.71" transform="translate(-173.16 -115.78)"/><path class="cls-20" d="M440.74,525.69c-6-15.92-9-38.81-9-38.81" transform="translate(-173.16 -115.78)"/><path class="cls-20" d="M334.25,511.76a20.19,20.19,0,0,0,4,15.92" transform="translate(-173.16 -115.78)"/><path class="cls-23" d="M236.22,456.52" transform="translate(-173.16 -115.78)"/><path class="cls-20" d="M297,428.3c-20.66-3.32-63.42,2.89-63.42,2.89s-1.9,24.15,17.86,31.95a22,22,0,0,0,14.16.68c8.25-2.37,20.76-9.14,26.66-29" transform="translate(-173.16 -115.78)"/><path class="cls-6" d="M291,331.13a7,7,0,0,0-3,.13,5.67,5.67,0,0,0-6.37,2.43,11.13,11.13,0,0,0-1.62,10.79,8.84,8.84,0,0,0,10.67,5.08,10,10,0,0,0,6.86-9.28C297.77,336.33,295.14,331.85,291,331.13Z" transform="translate(-173.16 -115.78)"/><path class="cls-6" d="M217.82,340.18a5.48,5.48,0,0,0-2.32.1,4.44,4.44,0,0,0-5,1.9,8.73,8.73,0,0,0-1.27,8.46,6.93,6.93,0,0,0,8.36,4,7.82,7.82,0,0,0,5.38-7.27C223.12,344.25,221.05,340.74,217.82,340.18Z" transform="translate(-173.16 -115.78)"/><path class="cls-20" d="M235.88,446.65S250.61,483,283.48,452" transform="translate(-173.16 -115.78)"/><path class="cls-6" d="M259.2,442.58a106.87,106.87,0,0,0-23.38,1c-2.5.38-1.44,3.26,1.06,2.88a102,102,0,0,1,22.33-.89C261.75,445.73,261.73,442.75,259.2,442.58Z" transform="translate(-173.16 -115.78)"/><path class="cls-20" d="M289.45,442.34s-9.94-.24-11.93-.24" transform="translate(-173.16 -115.78)"/><path class="cls-20" d="M434.2,539.67s-33.12,52.07-105.26,28.82" transform="translate(-173.16 -115.78)"/><path class="cls-7" d="M230.25,182.84s23.89-21.89,62.7-21.89C292,160.94,266.08,159.95,230.25,182.84Z" transform="translate(-173.16 -115.78)"/><path class="cls-7" d="M325.79,150s46.78-7.83,82.6,26.84C403.42,174.3,365.6,148.74,325.79,150Z" transform="translate(-173.16 -115.78)"/><path class="cls-7" d="M198.41,236.58s-13.93,17.91-4,39.81C194.42,276.39,189.45,251.51,198.41,236.58Z" transform="translate(-173.16 -115.78)"/></g></svg>